<svg width="900" height="240" viewBox="0 0 900 240" fill="none" xmlns="http://www.w3.org/2000/svg" role="img" aria-labelledby="title desc">
  <title id="title">Syndicate logo</title>
  <desc id="desc">Syndicate wordmark with a green and blue stylized S mark.</desc>
  <defs>
    <linearGradient id="greenSweep" x1="56" y1="112" x2="290" y2="92" gradientUnits="userSpaceOnUse">
      <stop stop-color="#12C33E"/>
      <stop offset="1" stop-color="#58DF48"/>
    </linearGradient>
    <linearGradient id="blueSweep" x1="44" y1="286" x2="290" y2="188" gradientUnits="userSpaceOnUse">
      <stop stop-color="#38C5F4"/>
      <stop offset="1" stop-color="#1787F6"/>
    </linearGradient>
    <linearGradient id="silverSweep" x1="136" y1="162" x2="342" y2="96" gradientUnits="userSpaceOnUse">
      <stop stop-color="#F4F5F8"/>
      <stop offset="1" stop-color="#C8CDD6"/>
    </linearGradient>
    <linearGradient id="shadowSweep" x1="88" y1="140" x2="302" y2="120" gradientUnits="userSpaceOnUse">
      <stop stop-color="#7F8794" stop-opacity="0.5"/>
      <stop offset="1" stop-color="#AAB1BE" stop-opacity="0.12"/>
    </linearGradient>
    <linearGradient id="charcoalSweep" x1="60" y1="196" x2="278" y2="250" gradientUnits="userSpaceOnUse">
      <stop stop-color="#192433"/>
      <stop offset="1" stop-color="#111A27"/>
    </linearGradient>
  </defs>
  <path d="M48 124C82 92 125 77 180 77C211 77 235 69 258 49" stroke="url(#shadowSweep)" stroke-width="12" stroke-linecap="round" stroke-linejoin="round"/>
  <path d="M44 128C79 92 124 75 181 75C211 75 236 67 264 43" stroke="url(#greenSweep)" stroke-width="28" stroke-linecap="round" stroke-linejoin="round"/>
  <path d="M84 127C116 102 156 95 203 90C222 88 237 83 252 74" stroke="url(#silverSweep)" stroke-width="18" stroke-linecap="round" stroke-linejoin="round"/>
  <path d="M46 136C71 171 112 187 160 187C197 187 228 174 252 150" stroke="url(#charcoalSweep)" stroke-width="26" stroke-linecap="round" stroke-linejoin="round"/>
  <path d="M40 214C69 175 117 154 181 154C207 154 227 146 246 127" stroke="url(#blueSweep)" stroke-width="30" stroke-linecap="round" stroke-linejoin="round"/>
  <path d="M64 210C82 195 101 185 124 180" stroke="url(#blueSweep)" stroke-width="30" stroke-linecap="round" stroke-linejoin="round"/>
  <text x="294" y="152" fill="#D7DAE0" font-family="Arial, Helvetica, sans-serif" font-size="92" font-weight="700" letter-spacing="4">SYNDICATE</text>
</svg>
